<?xml version="1.0" standalone="no"?><!DOCTYPE svg PUBLIC "-//W3C//DTD SVG 1.1//EN" "http://www.w3.org/Graphics/SVG/1.1/DTD/svg11.dtd"><svg version="1.1" xmlns="http://www.w3.org/2000/svg" xmlns:xlink="http://www.w3.org/1999/xlink" width="125" height="162"><defs></defs><g><path fill="white" stroke="none" paint-order="stroke fill markers" d=" M 0 0 L 125 0 L 125 162 L 0 162 L 0 0 Z"></path><text fill="black" stroke="none" font-family="&quot;Helvetica Neue&quot;,Helvetica,Arial,sans-serif" font-size="17px" font-style="normal" font-weight="normal" text-decoration="normal" x="66.5" y="22.5" text-anchor="middle" dominant-baseline="alphabetic">Avar</text><text fill="black" stroke="none" font-family="&quot;Helvetica Neue&quot;,Helvetica,Arial,sans-serif" font-size="10px" font-style="normal" font-weight="normal" text-decoration="normal" x="105" y="64.3" text-anchor="start" dominant-baseline="alphabetic">7fr.</text><path fill="none" stroke="black" paint-order="fill stroke markers" d=" M 28 50 L 42 50 M 28 50 L 28 72 M 28 72 L 42 72 M 28 72 L 28 94 M 28 94 L 42 94 M 28 94 L 28 116 M 28 116 L 42 116 M 28 116 L 28 138 M 28 138 L 42 138 M 42 50 L 56 50 M 42 50 L 42 72 M 42 72 L 56 72 M 42 72 L 42 94 M 42 94 L 56 94 M 42 94 L 42 116 M 42 116 L 56 116 M 42 116 L 42 138 M 42 138 L 56 138 M 56 50 L 70 50 M 56 50 L 56 72 M 56 72 L 70 72 M 56 72 L 56 94 M 56 94 L 70 94 M 56 94 L 56 116 M 56 116 L 70 116 M 56 116 L 56 138 M 56 138 L 70 138 M 70 50 L 84 50 M 70 50 L 70 72 M 70 72 L 84 72 M 70 72 L 70 94 M 70 94 L 84 94 M 70 94 L 70 116 M 70 116 L 84 116 M 70 116 L 70 138 M 70 138 L 84 138 M 84 50 L 98 50 M 84 50 L 84 72 M 84 72 L 98 72 M 84 72 L 84 94 M 84 94 L 98 94 M 84 94 L 84 116 M 84 116 L 98 116 M 84 116 L 84 138 M 84 138 L 98 138 M 98 50 L 98 72 M 98 72 L 98 94 M 98 94 L 98 116 M 98 116 L 98 138 Z" stroke-miterlimit="10"></path><path fill="black" stroke="none" paint-order="stroke fill markers" d=" M 28 61 L 33 61 A 5 5 0 1 1 32.999997500000205 60.99500000083333 M 42 61 L 47 61 A 5 5 0 1 1 46.999997500000205 60.99500000083333 M 56 61 L 61 61 A 5 5 0 1 1 60.999997500000205 60.99500000083333 M 70 105 L 75 105 A 5 5 0 1 1 74.9999975000002 104.99500000083333 Z"></path><path fill="none" stroke="black" paint-order="fill stroke markers" d=" M 79.80000000000001 34 L 88.19999999999999 43 M 79.80000000000001 43 L 88.19999999999999 34 Z" stroke-miterlimit="10"></path><path fill="none" stroke="black" paint-order="fill stroke markers" d=" M 93.8 34 L 102.2 43 M 93.8 43 L 102.2 34 Z" stroke-miterlimit="10"></path></g></svg>